<?xml version="1.0" encoding="UTF-8"?>
<svg id="a" data-name="Layer 1" xmlns="http://www.w3.org/2000/svg" viewBox="0 0 93.03 94.05">
  <path d="m55.46,88.32c9.75,0,18.7-3.38,25.77-9.03-8.58,9.09-20.73,14.75-34.21,14.75C21.05,94.05,0,73,0,47.02S21.05,0,47.02,0c13.48,0,25.63,5.67,34.21,14.75-7.07-5.65-16.02-9.03-25.77-9.03-22.81,0-41.3,18.49-41.3,41.3s18.49,41.3,41.3,41.3Z" style="fill: rgb(194, 207, 19);"/>
  <path d="m49.66,79.32c-7.62,0-14.63-2.64-20.15-7.06,6.71,7.11,16.21,11.54,26.75,11.54,20.31,0,36.78-16.46,36.78-36.78,0-20.31-16.46-36.78-36.78-36.78-10.54,0-20.04,4.43-26.75,11.54,5.53-4.42,12.53-7.06,20.15-7.06,17.84,0,32.3,14.46,32.3,32.3,0,17.84-14.46,32.3-32.3,32.3Z" style="fill:rgb(194, 207, 19);"/>
  <path d="m48.4,26.78v5.38h1.51v-5.39c-.5,0-1.01,0-1.51,0Zm3.06,20.05v5.4h1.51v-5.4h-1.51Zm-6.12,0v5.4h1.51v-5.4h-1.51Zm-9.22,22.87h5.87v-17.47h1.8v-5.4h-1.8v-14.67h1.8v-5.37c-3.39.01-5.95.02-7.67.02v42.88Zm12.28-22.87v5.4h1.51v-5.4h-1.51Zm20.76-9.48c-.16-1.4-.59-2.73-1.31-4.01-.72-1.27-1.58-2.4-2.59-3.38-1.01-.98-2.31-1.76-3.88-2.33-1.57-.58-3.3-.87-5.19-.87-.4,0-.97,0-1.67,0v5.39h1.67c1.54,0,2.87.36,4.01,1.07,1.14.71,1.96,1.62,2.46,2.72.51,1.1.76,2.28.76,3.54s-.25,2.43-.76,3.54c-.51,1.1-1.33,2.01-2.46,2.72-1.14.72-2.47,1.07-4.01,1.07h-1.67v5.4h1.67c1.88,0,3.61-.3,5.19-.89,1.57-.59,2.87-1.38,3.9-2.36,1.03-.98,1.9-2.1,2.59-3.38.7-1.28,1.12-2.62,1.28-4.04.16-1.41.16-2.82,0-4.22Zm-17.7-10.58v5.39h1.51v-5.39c-.48,0-.99,0-1.51,0Zm-6.12.02v5.37h1.51v-5.38c-.52,0-1.03,0-1.51,0Z" style="fill: rgb(194, 207, 19);"/>
</svg>